<svg id="图层_1" data-name="图层 1" xmlns="http://www.w3.org/2000/svg" viewBox="0 0 117.22 126.52"><defs><style>.cls-1{fill:#40b883;}.cls-2{fill:#34495e;}</style></defs><path class="cls-1" d="M138.44,76h-14q-3.75-43.34-45-43.34H35.13V76H21.22V16.4h58Q134.62,16.4,138.44,76Z" transform="translate(-21.22 -16.4)"/><path class="cls-1" d="M138.44,83.31q-3.81,59.61-59.23,59.61h-58V83.31H35.13v43.34H79.4q41.26,0,45-43.34Z" transform="translate(-21.22 -16.4)"/><path class="cls-2" d="M124.43,76H111.12q-1.73-15.83-9.88-22.73-6.9-5.62-21.84-5.62H48.92V76H35.13V32.67H79.4Q120.67,32.67,124.43,76Z" transform="translate(-21.22 -16.4)"/><path class="cls-2" d="M124.43,83.31q-3.75,43.34-45,43.34H35.13V83.31H48.92v28.35H79.4q14.37,0,21.84-6.24,8.16-6.39,9.88-22.11Z" transform="translate(-21.22 -16.4)"/></svg>